<svg width="2958" height="212" viewBox="0 0 2958 212" fill="none" xmlns="http://www.w3.org/2000/svg">
<mask id="path-1-inside-1" fill="white">
<path fill-rule="evenodd" clip-rule="evenodd" d="M2812.64 3.65517H155.363C151.862 1.27157 148.179 0 144.379 0C140.579 0 136.897 1.27157 133.396 3.65517H131.586V4.99862C121.282 13.2917 112.704 31.3353 107.559 54.8276H10C4.47715 54.8276 0 59.3047 0 64.8276V136.207C0 141.73 4.47722 146.207 10.0001 146.207H105.474C110.16 175.011 119.73 197.46 131.586 207.001V212H144.379H2814.48V209.488C2817.42 211.133 2820.48 212 2823.62 212C2841.19 212 2856.25 184.811 2862.53 146.207H2947.03C2952.56 146.207 2957.03 141.73 2957.03 136.207V64.8276C2957.03 59.3047 2952.56 54.8276 2947.03 54.8276H2860.44C2853.28 22.139 2839.48 0 2823.62 0C2819.82 0 2816.14 1.27157 2812.64 3.65517Z"/>
</mask>
<path fill-rule="evenodd" clip-rule="evenodd" d="M2812.64 3.65517H155.363C151.862 1.27157 148.179 0 144.379 0C140.579 0 136.897 1.27157 133.396 3.65517H131.586V4.99862C121.282 13.2917 112.704 31.3353 107.559 54.8276H10C4.47715 54.8276 0 59.3047 0 64.8276V136.207C0 141.73 4.47722 146.207 10.0001 146.207H105.474C110.16 175.011 119.73 197.46 131.586 207.001V212H144.379H2814.48V209.488C2817.42 211.133 2820.48 212 2823.62 212C2841.19 212 2856.25 184.811 2862.53 146.207H2947.03C2952.56 146.207 2957.03 141.73 2957.03 136.207V64.8276C2957.03 59.3047 2952.56 54.8276 2947.03 54.8276H2860.44C2853.28 22.139 2839.48 0 2823.62 0C2819.82 0 2816.14 1.27157 2812.64 3.65517Z" fill="black"/>
<path d="M155.363 3.65517L152.549 7.78827L153.822 8.65517H155.363V3.65517ZM2812.64 3.65517V8.65517H2814.18L2815.45 7.78828L2812.64 3.65517ZM133.396 3.65517V8.65517H134.936L136.21 7.78827L133.396 3.65517ZM131.586 3.65517V-1.34483H126.586V3.65517H131.586ZM131.586 4.99862L134.721 8.89385L136.586 7.39279V4.99862H131.586ZM107.559 54.8276V59.8276H111.582L112.443 55.8973L107.559 54.8276ZM105.474 146.207L110.409 145.404L109.726 141.207H105.474V146.207ZM131.586 207.001H136.586V204.607L134.721 203.106L131.586 207.001ZM131.586 212H126.586V217H131.586V212ZM2814.48 212V217H2819.48V212H2814.48ZM2814.48 209.488L2816.92 205.124L2809.48 200.965V209.488H2814.48ZM2862.53 146.207V141.207H2858.27L2857.59 145.404L2862.53 146.207ZM2860.44 54.8276L2855.56 55.8973L2856.42 59.8276H2860.44V54.8276ZM155.363 8.65517H2812.64V-1.34483H155.363V8.65517ZM158.177 -0.47793C153.997 -3.32327 149.352 -5 144.379 -5V5C147.007 5 149.726 5.8664 152.549 7.78827L158.177 -0.47793ZM144.379 -5C139.407 -5 134.762 -3.32327 130.582 -0.47793L136.21 7.78827C139.033 5.8664 141.752 5 144.379 5V-5ZM131.586 8.65517H133.396V-1.34483H131.586V8.65517ZM136.586 4.99862V3.65517H126.586V4.99862H136.586ZM128.451 1.10339C116.762 10.5112 107.878 29.9971 102.674 53.7579L112.443 55.8973C117.529 32.6734 125.802 16.0721 134.721 8.89385L128.451 1.10339ZM107.559 49.8276H10V59.8276H107.559V49.8276ZM10 49.8276C1.71573 49.8276 -5 56.5433 -5 64.8276H5C5 62.0662 7.23857 59.8276 10 59.8276V49.8276ZM-5 64.8276V136.207H5V64.8276H-5ZM-5 136.207C-5 144.491 1.71584 151.207 10.0001 151.207V141.207C7.2386 141.207 5 138.968 5 136.207H-5ZM10.0001 151.207H105.474V141.207H10.0001V151.207ZM100.539 147.01C102.932 161.718 106.591 174.939 111.246 185.798C115.866 196.577 121.629 205.406 128.451 210.897L134.721 203.106C129.688 199.055 124.737 191.889 120.437 181.858C116.171 171.905 112.702 159.5 110.409 145.404L100.539 147.01ZM136.586 212V207.001H126.586V212H136.586ZM144.379 207H131.586V217H144.379V207ZM2814.48 207H144.379V217H2814.48V207ZM2809.48 209.488V212H2819.48V209.488H2809.48ZM2812.04 213.853C2815.64 215.861 2819.53 217 2823.62 217V207C2821.44 207 2819.21 206.405 2816.92 205.124L2812.04 213.853ZM2823.62 217C2835.17 217 2844.63 208.152 2851.63 196.09C2858.78 183.769 2864.26 166.681 2867.46 147.01L2857.59 145.404C2854.51 164.338 2849.32 180.146 2842.98 191.071C2836.49 202.253 2829.64 207 2823.62 207V217ZM2862.53 151.207H2947.03V141.207H2862.53V151.207ZM2947.03 151.207C2955.32 151.207 2962.03 144.491 2962.03 136.207H2952.03C2952.03 138.968 2949.8 141.207 2947.03 141.207V151.207ZM2962.03 136.207V64.8276H2952.03V136.207H2962.03ZM2962.03 64.8276C2962.03 56.5432 2955.32 49.8276 2947.03 49.8276V59.8276C2949.8 59.8276 2952.03 62.0663 2952.03 64.8276H2962.03ZM2947.03 49.8276H2860.44V59.8276H2947.03V49.8276ZM2865.33 53.7579C2861.67 37.0601 2856.25 22.7141 2849.47 12.4078C2842.79 2.25233 2834.06 -5 2823.62 -5V5C2829.04 5 2835.14 8.81716 2841.11 17.9033C2846.99 26.8387 2852.05 39.9064 2855.56 55.8973L2865.33 53.7579ZM2823.62 -5C2818.65 -5 2814 -3.32326 2809.82 -0.477936L2815.45 7.78828C2818.27 5.86639 2820.99 5 2823.62 5V-5Z" fill="black" mask="url(#path-1-inside-1)"/>
</svg>
