<svg width="632" height="405" viewBox="0 0 632 405" fill="none" xmlns="http://www.w3.org/2000/svg">
<mask id="path-1-inside-1" fill="white">
<path fill-rule="evenodd" clip-rule="evenodd" d="M98 276C106.797 276 115.138 271.34 122.608 263H205.747L291.362 300.099C295.65 320.365 309.674 336.768 328 343.586V405H380V335.928C394.525 325.053 404 307.191 404 287C404 270.397 397.593 255.368 387.24 244.505C388.985 242.776 390.685 240.939 392.335 239H591.5H592V238.992C614.137 238.325 632 193.365 632 138C632 82.2192 613.868 37 591.5 37C588.74 37 586.045 37.6884 583.44 39H392.335C379.498 23.9123 363.649 15 346.5 15C340.124 15 333.928 16.2319 328 18.5549V15H124.325C116.424 5.40886 107.478 0 98 0C83.3298 0 69.9317 12.959 59.7175 34.3282C54.5784 28.3212 48.9294 25 43 25C19.2518 25 0 78.2781 0 144C0 209.722 19.2518 263 43 263C43.0127 263 43.0253 263 43.038 263L27 306.659L78.1785 325.459L96.3668 275.946C96.9094 275.982 97.4538 276 98 276Z"/>
</mask>
<path fill-rule="evenodd" clip-rule="evenodd" d="M98 276C106.797 276 115.138 271.34 122.608 263H205.747L291.362 300.099C295.65 320.365 309.674 336.768 328 343.586V405H380V335.928C394.525 325.053 404 307.191 404 287C404 270.397 397.593 255.368 387.24 244.505C388.985 242.776 390.685 240.939 392.335 239H591.5H592V238.992C614.137 238.325 632 193.365 632 138C632 82.2192 613.868 37 591.5 37C588.74 37 586.045 37.6884 583.44 39H392.335C379.498 23.9123 363.649 15 346.5 15C340.124 15 333.928 16.2319 328 18.5549V15H124.325C116.424 5.40886 107.478 0 98 0C83.3298 0 69.9317 12.959 59.7175 34.3282C54.5784 28.3212 48.9294 25 43 25C19.2518 25 0 78.2781 0 144C0 209.722 19.2518 263 43 263C43.0127 263 43.0253 263 43.038 263L27 306.659L78.1785 325.459L96.3668 275.946C96.9094 275.982 97.4538 276 98 276Z" fill="black"/>
<path d="M122.608 263V258H120.374L118.883 259.664L122.608 263ZM205.747 263L207.735 258.412L206.784 258H205.747V263ZM291.362 300.099L296.254 299.064L295.72 296.538L293.35 295.511L291.362 300.099ZM328 343.586H333V340.111L329.743 338.9L328 343.586ZM328 405H323V410H328V405ZM380 405V410H385V405H380ZM380 335.928L377.003 331.925L375 333.425V335.928H380ZM387.24 244.505L383.721 240.953L380.237 244.404L383.62 247.955L387.24 244.505ZM392.335 239V234H390.024L388.526 235.76L392.335 239ZM592 239V244H597V239H592ZM592 238.992L591.849 233.995L587 234.141V238.992H592ZM583.44 39V44H584.628L585.689 43.4657L583.44 39ZM392.335 39L388.526 42.24L390.024 44H392.335V39ZM328 18.5549H323V25.8845L329.824 23.2103L328 18.5549ZM328 15H333V10H328V15ZM124.325 15L120.465 18.1789L121.965 20H124.325V15ZM59.7175 34.3282L55.9182 37.5786L60.9143 43.4184L64.2287 36.4845L59.7175 34.3282ZM43.038 263L47.7313 264.724L50.2014 258H43.038V263ZM27 306.659L22.3066 304.935L20.5826 309.628L25.2759 311.353L27 306.659ZM78.1785 325.459L76.4544 330.153L81.1477 331.877L82.8718 327.183L78.1785 325.459ZM96.3668 275.946L96.6951 270.957L92.9631 270.712L91.6734 274.222L96.3668 275.946ZM118.883 259.664C111.984 267.367 104.894 271 98 271V281C108.701 281 118.291 275.313 126.332 266.336L118.883 259.664ZM205.747 258H122.608V268H205.747V258ZM293.35 295.511L207.735 258.412L203.759 267.588L289.374 304.687L293.35 295.511ZM329.743 338.9C313.09 332.704 300.202 317.725 296.254 299.064L286.471 301.134C291.097 323.005 306.258 340.832 326.257 348.272L329.743 338.9ZM333 405V343.586H323V405H333ZM380 400H328V410H380V400ZM375 335.928V405H385V335.928H375ZM399 287C399 305.612 390.271 321.992 377.003 331.925L382.997 339.93C398.779 328.114 409 308.771 409 287H399ZM383.62 247.955C393.098 257.899 399 271.697 399 287H409C409 269.096 402.088 252.837 390.859 241.056L383.62 247.955ZM388.526 235.76C386.965 237.595 385.362 239.328 383.721 240.953L390.759 248.057C392.609 246.224 394.405 244.283 396.143 242.24L388.526 235.76ZM591.5 234H392.335V244H591.5V234ZM592 234H591.5V244H592V234ZM587 238.992V239H597V238.992H587ZM627 138C627 165.21 622.602 189.638 615.653 207.165C612.174 215.94 608.149 222.75 603.919 227.32C599.693 231.888 595.604 233.881 591.849 233.995L592.151 243.99C599.465 243.77 605.91 239.892 611.259 234.112C616.605 228.335 621.196 220.319 624.949 210.85C632.467 191.888 637 166.155 637 138H627ZM591.5 42C595.279 42 599.381 43.8892 603.636 48.3771C607.901 52.8761 611.973 59.6538 615.497 68.4431C622.535 85.9943 627 110.584 627 138H637C637 109.635 632.399 83.7249 624.779 64.7213C620.974 55.2332 616.318 47.2198 610.893 41.4971C605.457 35.7632 598.905 32 591.5 32V42ZM585.689 43.4657C587.67 42.4685 589.599 42 591.5 42V32C587.881 32 584.42 32.9083 581.191 34.5343L585.689 43.4657ZM392.335 44H583.44V34H392.335V44ZM346.5 20C361.789 20 376.35 27.9291 388.526 42.24L396.143 35.76C382.645 19.8954 365.509 10 346.5 10V20ZM329.824 23.2103C335.201 21.1031 340.78 20 346.5 20V10C339.468 10 332.655 11.3606 326.176 13.8996L329.824 23.2103ZM323 15V18.5549H333V15H323ZM124.325 20H328V10H124.325V20ZM98 5C105.422 5 113.089 9.22319 120.465 18.1789L128.184 11.8211C119.76 1.59453 109.533 -5 98 -5V5ZM64.2287 36.4845C74.3017 15.4105 86.4567 5 98 5V-5C80.2029 -5 65.5617 10.5075 55.2064 32.1719L64.2287 36.4845ZM43 30C46.9136 30 51.2969 32.177 55.9182 37.5786L63.5168 31.0778C57.8599 24.4655 50.9451 20 43 20V30ZM5 144C5 111.562 9.75908 82.4137 17.2968 61.5535C21.0733 51.1024 25.4524 42.9974 30.0641 37.5994C34.6915 32.1827 39.0814 30 43 30V20C35.0445 20 28.1223 24.477 22.4609 31.1039C16.7836 37.7493 11.897 47.0715 7.89199 58.1551C-0.133205 80.3644 -5 110.716 -5 144H5ZM43 258C39.0814 258 34.6915 255.817 30.0641 250.401C25.4524 245.003 21.0733 236.898 17.2968 226.447C9.75908 205.586 5 176.438 5 144H-5C-5 177.284 -0.133205 207.636 7.89199 229.845C11.897 240.929 16.7836 250.251 22.4609 256.896C28.1223 263.523 35.0445 268 43 268V258ZM43.038 258C43.0281 258 43.0188 258 43.013 258C43.0061 258 43.0028 258 43 258V268C43.0098 268 43.0192 268 43.025 268C43.0318 268 43.0352 268 43.038 268V258ZM38.3446 261.276L22.3066 304.935L31.6933 308.383L47.7313 264.724L38.3446 261.276ZM25.2759 311.353L76.4544 330.153L79.9025 320.766L28.7241 301.966L25.2759 311.353ZM82.8718 327.183L101.06 277.67L91.6734 274.222L73.4851 323.735L82.8718 327.183ZM98 271C97.5634 271 97.1285 270.986 96.6951 270.957L96.0385 280.936C96.6903 280.978 97.3442 281 98 281V271Z" fill="black" mask="url(#path-1-inside-1)"/>
</svg>
