<svg width="557" height="505" viewBox="0 0 557 505" fill="none" xmlns="http://www.w3.org/2000/svg">
<mask id="path-1-inside-1" fill="white">
<path fill-rule="evenodd" clip-rule="evenodd" d="M426.898 504.146C498.751 504.146 557 391.289 557 252.073C557 112.857 498.751 0 426.898 0C403.142 0 380.874 12.3355 361.706 33.8808H336.775C291.048 33.8808 250.407 68.4291 224.656 121.971H212.771V119.26H170.302C160.958 108.854 150.411 102.998 139.25 102.998C135.089 102.998 131.013 103.812 127.053 105.372C123.093 103.812 119.017 102.998 114.856 102.998C106.906 102.998 99.2691 105.968 92.1557 111.437C85.0423 105.968 77.4049 102.998 69.4556 102.998C31.0963 102.998 0 172.168 0 257.494C0 342.82 31.0963 411.99 69.4556 411.99C77.4049 411.99 85.0423 409.02 92.1557 403.55C99.2691 409.02 106.906 411.99 114.856 411.99C119.017 411.99 123.093 411.176 127.053 409.616C131.013 411.176 135.089 411.99 139.25 411.99C149.402 411.99 159.046 407.145 167.738 398.438H212.771V393.017H224.656C250.407 446.559 291.048 481.107 336.775 481.107H372.484C389.039 495.897 407.471 504.146 426.898 504.146Z"/>
</mask>
<path fill-rule="evenodd" clip-rule="evenodd" d="M426.898 504.146C498.751 504.146 557 391.289 557 252.073C557 112.857 498.751 0 426.898 0C403.142 0 380.874 12.3355 361.706 33.8808H336.775C291.048 33.8808 250.407 68.4291 224.656 121.971H212.771V119.26H170.302C160.958 108.854 150.411 102.998 139.25 102.998C135.089 102.998 131.013 103.812 127.053 105.372C123.093 103.812 119.017 102.998 114.856 102.998C106.906 102.998 99.2691 105.968 92.1557 111.437C85.0423 105.968 77.4049 102.998 69.4556 102.998C31.0963 102.998 0 172.168 0 257.494C0 342.82 31.0963 411.99 69.4556 411.99C77.4049 411.99 85.0423 409.02 92.1557 403.55C99.2691 409.02 106.906 411.99 114.856 411.99C119.017 411.99 123.093 411.176 127.053 409.616C131.013 411.176 135.089 411.99 139.25 411.99C149.402 411.99 159.046 407.145 167.738 398.438H212.771V393.017H224.656C250.407 446.559 291.048 481.107 336.775 481.107H372.484C389.039 495.897 407.471 504.146 426.898 504.146Z" fill="black"/>
<path d="M361.706 33.8808V38.8808H363.95L365.442 37.2042L361.706 33.8808ZM224.656 121.971V126.971H227.8L229.162 124.138L224.656 121.971ZM212.771 121.971H207.771V126.971H212.771V121.971ZM212.771 119.26H217.771V114.26H212.771V119.26ZM170.302 119.26L166.582 122.601L168.072 124.26H170.302V119.26ZM127.053 105.372L125.22 110.024L127.053 110.746L128.886 110.024L127.053 105.372ZM92.1557 111.437L89.108 115.401L92.1557 117.745L95.2034 115.401L92.1557 111.437ZM92.1557 403.55L95.2034 399.587L92.1557 397.243L89.108 399.587L92.1557 403.55ZM127.053 409.616L128.886 404.964L127.053 404.242L125.22 404.964L127.053 409.616ZM167.738 398.438V393.438H165.665L164.2 394.905L167.738 398.438ZM212.771 398.438V403.438H217.771V398.438H212.771ZM212.771 393.017V388.017H207.771V393.017H212.771ZM224.656 393.017L229.162 390.85L227.8 388.017H224.656V393.017ZM372.484 481.107L375.815 477.378L374.392 476.107H372.484V481.107ZM552 252.073C552 321.051 537.559 383.25 514.451 428.022C491.211 473.05 459.994 499.146 426.898 499.146V509.146C465.655 509.146 499.489 478.813 523.337 432.609C547.317 386.148 562 322.311 562 252.073H552ZM426.898 5C459.994 5 491.211 31.096 514.451 76.1237C537.559 120.896 552 183.095 552 252.073H562C562 181.835 547.317 117.998 523.337 71.5373C499.489 25.3325 465.655 -5 426.898 -5V5ZM365.442 37.2042C383.995 16.3497 405.006 5 426.898 5V-5C401.279 -5 377.753 8.32134 357.97 30.5573L365.442 37.2042ZM336.775 38.8808H361.706V28.8808H336.775V38.8808ZM229.162 124.138C254.508 71.4373 293.792 38.8808 336.775 38.8808V28.8808C288.304 28.8808 246.305 65.4208 220.15 119.804L229.162 124.138ZM212.771 126.971H224.656V116.971H212.771V126.971ZM207.771 119.26V121.971H217.771V119.26H207.771ZM170.302 124.26H212.771V114.26H170.302V124.26ZM139.25 107.998C148.527 107.998 157.823 112.846 166.582 122.601L174.023 115.92C164.093 104.861 152.296 97.9976 139.25 97.9976V107.998ZM128.886 110.024C132.299 108.679 135.755 107.998 139.25 107.998V97.9976C134.422 97.9976 129.726 98.9444 125.22 100.72L128.886 110.024ZM114.856 107.998C118.351 107.998 121.806 108.679 125.22 110.024L128.886 100.72C124.379 98.9444 119.683 97.9976 114.856 97.9976V107.998ZM95.2034 115.401C101.63 110.46 108.224 107.998 114.856 107.998V97.9976C105.589 97.9976 96.9082 101.476 89.108 107.474L95.2034 115.401ZM69.4556 107.998C76.0878 107.998 82.6815 110.46 89.108 115.401L95.2034 107.474C87.4032 101.476 78.722 97.9976 69.4556 97.9976V107.998ZM5 257.494C5 215.37 12.6859 177.475 24.9034 150.299C37.3327 122.651 53.4716 107.998 69.4556 107.998V97.9976C47.0803 97.9976 28.4914 117.929 15.7827 146.198C2.86223 174.939 -5 214.292 -5 257.494H5ZM69.4556 406.99C53.4716 406.99 37.3327 392.337 24.9034 364.689C12.6859 337.513 5 299.618 5 257.494H-5C-5 300.696 2.86223 340.049 15.7827 368.789C28.4914 397.059 47.0803 416.99 69.4556 416.99V406.99ZM89.108 399.587C82.6814 404.528 76.0878 406.99 69.4556 406.99V416.99C78.722 416.99 87.4032 413.512 95.2034 407.514L89.108 399.587ZM114.856 406.99C108.224 406.99 101.63 404.528 95.2034 399.587L89.108 407.514C96.9082 413.512 105.589 416.99 114.856 416.99V406.99ZM125.22 404.964C121.806 406.309 118.351 406.99 114.856 406.99V416.99C119.683 416.99 124.379 416.043 128.886 414.268L125.22 404.964ZM139.25 406.99C135.755 406.99 132.299 406.309 128.886 404.964L125.22 414.268C129.726 416.043 134.422 416.99 139.25 416.99V406.99ZM164.2 394.905C156.138 402.981 147.695 406.99 139.25 406.99V416.99C151.109 416.99 161.953 411.31 171.277 401.971L164.2 394.905ZM212.771 393.438H167.738V403.438H212.771V393.438ZM207.771 393.017V398.438H217.771V393.017H207.771ZM224.656 388.017H212.771V398.017H224.656V388.017ZM336.775 476.107C293.792 476.107 254.508 443.551 229.162 390.85L220.15 395.184C246.305 449.567 288.304 486.107 336.775 486.107V476.107ZM372.484 476.107H336.775V486.107H372.484V476.107ZM426.898 499.146C408.978 499.146 391.684 491.555 375.815 477.378L369.153 484.836C386.394 500.238 405.965 509.146 426.898 509.146V499.146Z" fill="black" mask="url(#path-1-inside-1)"/>
</svg>
