<?xml version="1.0" encoding="iso-8859-1"?>
<!-- Generator: Adobe Illustrator 19.0.0, SVG Export Plug-In . SVG Version: 6.00 Build 0)  -->
<svg version="1.1" id="Capa_1" xmlns="http://www.w3.org/2000/svg" xmlns:xlink="http://www.w3.org/1999/xlink" x="0px" y="0px"
	 viewBox="0 0 512 512" style="enable-background:new 0 0 512 512;" xml:space="preserve">
<g>
	<g>
		<path d="M446.412,268.672C438.156,260.267,427.852,256,415.82,256c-37.269,0-48.405,33.152-55.744,55.104
			c-2.432,7.189-6.059,18.069-8.256,19.563c-8.021,0-17.963-23.467-21.483-44.437c-0.875-5.12-5.312-8.896-10.517-8.896h-42.667
			c-5.888,0-10.667,4.779-10.667,10.667s4.779,10.667,10.667,10.667h33.941C315.276,316.885,326.646,352,351.82,352
			c17.045,0,22.848-17.344,28.48-34.133c8.213-24.491,15.125-40.533,35.52-40.533c6.272,0,11.157,2.005,15.381,6.272
			c18.176,18.539,17.259,71.04,16.768,99.264l-0.149,11.797c0,39.808-7.509,71.125-10.667,74.667H95.82c-31.637,0-32-61.376-32-64
			c0-18.667,6.251-27.797,14.144-39.36c1.856-2.688,3.712-5.419,5.525-8.277c8.576-13.568,30.976-46.741,39.296-59.029h47.701
			c5.888,0,10.667-4.779,10.667-10.667s-4.779-10.667-10.667-10.667h-53.333c-3.541,0-6.848,1.749-8.832,4.672
			c0,0-32.149,47.339-42.859,64.299c-1.664,2.645-3.371,5.141-5.056,7.616c-8.811,12.843-17.92,26.133-17.92,51.413
			c0,39.36,13.952,85.333,53.333,85.333h341.333c29.675,0,32-73.472,32-96l0.149-11.413
			C469.9,349.717,470.881,293.568,446.412,268.672z"/>
	</g>
</g>
<g>
	<g>
		<path d="M305.036,386.24l-20.523-88.896C278.902,273.003,257.526,256,232.545,256h-17.451c-24.981,0-46.357,17.003-51.968,41.344
			l-20.523,88.896c-3.093,13.461-0.491,27.776,7.232,39.339C159.201,439.616,174.86,448,191.713,448h64.213
			c16.853,0,32.512-8.384,41.941-22.507C305.526,413.995,308.15,399.701,305.036,386.24z M280.054,413.76
			c-5.397,8.064-14.421,12.907-24.128,12.907h-64.213c-9.707,0-18.731-4.843-24.192-12.992c-4.416-6.635-5.909-14.869-4.117-22.635
			l20.523-88.896c3.349-14.613,16.192-24.811,31.168-24.811h17.451c14.976,0,27.819,10.197,31.168,24.832l20.523,88.896
			C286.028,398.805,284.534,407.061,280.054,413.76z"/>
	</g>
</g>
<g>
	<g>
		<path d="M202.486,405.333c-5.888,0-10.667,4.779-10.667,10.667v64c0,5.888,4.779,10.667,10.667,10.667s10.667-4.779,10.667-10.667
			v-64C213.153,410.112,208.374,405.333,202.486,405.333z"/>
	</g>
</g>
<g>
	<g>
		<path d="M245.153,405.333c-5.888,0-10.667,4.779-10.667,10.667v64c0,5.888,4.779,10.667,10.667,10.667S255.82,485.888,255.82,480
			v-64C255.82,410.112,251.041,405.333,245.153,405.333z"/>
	</g>
</g>
<g>
	<g>
		<path d="M266.486,490.667h-85.333c-5.888,0-10.667,4.779-10.667,10.667c0,5.888,4.779,10.667,10.667,10.667h85.333
			c5.888,0,10.667-4.779,10.667-10.667C277.153,495.445,272.374,490.667,266.486,490.667z"/>
	</g>
</g>
<g>
	<g>
		<circle cx="415.82" cy="309.333" r="10.667"/>
	</g>
</g>
<g>
	<g>
		<path d="M362.486,362.667c-23.531,0-42.667,19.136-42.667,42.667c0,23.531,19.136,42.667,42.667,42.667
			c23.509,0,42.667-19.136,42.667-42.667C405.153,381.803,386.017,362.667,362.486,362.667z M362.486,426.667
			c-11.776,0-21.333-9.579-21.333-21.333c0-11.755,9.557-21.333,21.333-21.333c11.755,0,21.333,9.579,21.333,21.333
			C383.82,417.088,374.262,426.667,362.486,426.667z"/>
	</g>
</g>
<g>
	<g>
		<path d="M338.038,56.469L319.82,38.251V10.667C319.82,4.779,315.041,0,309.153,0H138.486c-5.888,0-10.667,4.779-10.667,10.667
			v27.563l-18.219,18.219c-1.984,2.005-3.115,4.715-3.115,7.552v181.333c0,1.664,0.384,3.285,1.109,4.779l21.333,42.667
			c2.645,5.291,9.045,7.403,14.315,4.779c5.269-2.645,7.403-9.045,4.779-14.315l-20.203-40.427v-174.4l18.219-18.197
			c1.984-2.005,3.115-4.715,3.115-7.552V21.333h149.333v21.333c0,2.837,1.109,5.547,3.093,7.531l18.219,18.219v174.379
			l-20.203,40.427c-2.624,5.269-0.491,11.669,4.779,14.315c1.557,0.768,3.179,1.131,4.779,1.131c3.883,0,7.659-2.155,9.536-5.888
			l21.333-42.667c0.725-1.493,1.131-3.115,1.131-4.779V64C341.153,61.163,340.022,58.453,338.038,56.469z"/>
	</g>
</g>
<g>
	<g>
		<path d="M330.486,170.667H117.153c-5.909,0-10.667,4.779-10.667,10.667S111.265,192,117.153,192h213.333
			c5.888,0,10.667-4.779,10.667-10.667S336.374,170.667,330.486,170.667z"/>
	</g>
</g>
<g>
	<g>
		<path d="M330.486,64H117.153c-5.909,0-10.667,4.779-10.667,10.667s4.779,10.667,10.667,10.667h213.333
			c5.888,0,10.667-4.779,10.667-10.667S336.374,64,330.486,64z"/>
	</g>
</g>
<g>
	<g>
		<path d="M159.82,96c-5.888,0-10.667,4.779-10.667,10.667v42.667c0,5.888,4.779,10.667,10.667,10.667s10.667-4.779,10.667-10.667
			v-42.667C170.486,100.779,165.708,96,159.82,96z"/>
	</g>
</g>
<g>
	<g>
		<path d="M202.486,96c-5.888,0-10.667,4.779-10.667,10.667v42.667c0,5.888,4.779,10.667,10.667,10.667s10.667-4.779,10.667-10.667
			v-42.667C213.153,100.779,208.374,96,202.486,96z"/>
	</g>
</g>
<g>
	<g>
		<path d="M245.153,96c-5.888,0-10.667,4.779-10.667,10.667v42.667c0,5.888,4.779,10.667,10.667,10.667s10.667-4.779,10.667-10.667
			v-42.667C255.82,100.779,251.041,96,245.153,96z"/>
	</g>
</g>
<g>
	<g>
		<path d="M287.82,96c-5.888,0-10.667,4.779-10.667,10.667v42.667c0,5.888,4.779,10.667,10.667,10.667s10.667-4.779,10.667-10.667
			v-42.667C298.486,100.779,293.708,96,287.82,96z"/>
	</g>
</g>
<g>
</g>
<g>
</g>
<g>
</g>
<g>
</g>
<g>
</g>
<g>
</g>
<g>
</g>
<g>
</g>
<g>
</g>
<g>
</g>
<g>
</g>
<g>
</g>
<g>
</g>
<g>
</g>
<g>
</g>
</svg>
