<svg width="808" height="808" viewBox="0 0 808 808" fill="none" xmlns="http://www.w3.org/2000/svg">
<mask id="path-1-inside-1" fill="white">
<path fill-rule="evenodd" clip-rule="evenodd" d="M404 808C627.123 808 808 627.123 808 404C808 180.877 627.123 0 404 0C180.877 0 0 180.877 0 404C0 627.123 180.877 808 404 808ZM404 601.124C512.869 601.124 601.124 512.869 601.124 404C601.124 295.131 512.869 206.876 404 206.876C295.131 206.876 206.876 295.131 206.876 404C206.876 512.869 295.131 601.124 404 601.124Z"/>
</mask>
<path fill-rule="evenodd" clip-rule="evenodd" d="M404 808C627.123 808 808 627.123 808 404C808 180.877 627.123 0 404 0C180.877 0 0 180.877 0 404C0 627.123 180.877 808 404 808ZM404 601.124C512.869 601.124 601.124 512.869 601.124 404C601.124 295.131 512.869 206.876 404 206.876C295.131 206.876 206.876 295.131 206.876 404C206.876 512.869 295.131 601.124 404 601.124Z" fill="black"/>
<path d="M803 404C803 624.362 624.362 803 404 803V813C629.884 813 813 629.884 813 404H803ZM404 5C624.362 5 803 183.638 803 404H813C813 178.116 629.884 -5 404 -5V5ZM5 404C5 183.638 183.638 5 404 5V-5C178.116 -5 -5 178.116 -5 404H5ZM404 803C183.638 803 5 624.362 5 404H-5C-5 629.884 178.116 813 404 813V803ZM596.124 404C596.124 510.107 510.107 596.124 404 596.124V606.124C515.63 606.124 606.124 515.63 606.124 404H596.124ZM404 211.876C510.107 211.876 596.124 297.893 596.124 404H606.124C606.124 292.37 515.63 201.876 404 201.876V211.876ZM211.876 404C211.876 297.893 297.893 211.876 404 211.876V201.876C292.37 201.876 201.876 292.37 201.876 404H211.876ZM404 596.124C297.893 596.124 211.876 510.107 211.876 404H201.876C201.876 515.63 292.37 606.124 404 606.124V596.124Z" fill="black" mask="url(#path-1-inside-1)"/>
</svg>
