<svg width="392" height="494" viewBox="0 0 392 494" fill="none" xmlns="http://www.w3.org/2000/svg">
<mask id="path-1-inside-1" fill="white">
<path fill-rule="evenodd" clip-rule="evenodd" d="M370.896 493.073C371.795 493.073 372.681 492.367 373.549 490.999L373.642 491.043L373.638 490.857C383.587 474.641 391.259 371.435 391.259 246.537C391.259 110.378 382.142 0 370.896 0C368.799 0 366.777 3.83637 364.873 10.9609L139.631 127.312V127.268H103.495C99.3105 117.058 94.5291 111.269 89.4513 111.269C85.9063 111.269 82.5057 114.09 79.3517 119.268H39.9168C36.7628 114.09 33.3622 111.269 29.8171 111.269C13.3496 111.269 0 172.156 0 247.264C0 322.372 13.3496 383.259 29.8171 383.259C33.6812 383.259 37.3735 379.907 40.7621 373.805H78.5064C81.8949 379.907 85.5873 383.259 89.4513 383.259C94.5291 383.259 99.3105 377.47 103.495 367.26H110.249L366.674 487.768C368.036 491.245 369.448 493.073 370.896 493.073Z"/>
</mask>
<path fill-rule="evenodd" clip-rule="evenodd" d="M370.896 493.073C371.795 493.073 372.681 492.367 373.549 490.999L373.642 491.043L373.638 490.857C383.587 474.641 391.259 371.435 391.259 246.537C391.259 110.378 382.142 0 370.896 0C368.799 0 366.777 3.83637 364.873 10.9609L139.631 127.312V127.268H103.495C99.3105 117.058 94.5291 111.269 89.4513 111.269C85.9063 111.269 82.5057 114.09 79.3517 119.268H39.9168C36.7628 114.09 33.3622 111.269 29.8171 111.269C13.3496 111.269 0 172.156 0 247.264C0 322.372 13.3496 383.259 29.8171 383.259C33.6812 383.259 37.3735 379.907 40.7621 373.805H78.5064C81.8949 379.907 85.5873 383.259 89.4513 383.259C94.5291 383.259 99.3105 377.47 103.495 367.26H110.249L366.674 487.768C368.036 491.245 369.448 493.073 370.896 493.073Z" fill="black"/>
<path d="M373.549 490.999L375.676 486.474L371.689 484.6L369.328 488.32L373.549 490.999ZM373.642 491.043L371.515 495.568L378.791 498.987L378.641 490.949L373.642 491.043ZM373.638 490.857L369.376 488.242L368.612 489.488L368.639 490.95L373.638 490.857ZM364.873 10.9609L367.168 15.4033L369.133 14.3882L369.704 12.2514L364.873 10.9609ZM139.631 127.312H134.631V135.523L141.926 131.754L139.631 127.312ZM139.631 127.268H144.631V122.268H139.631V127.268ZM103.495 127.268L98.8689 129.164L100.141 132.268H103.495V127.268ZM79.3517 119.268V124.268H82.1606L83.6218 121.869L79.3517 119.268ZM39.9168 119.268L35.6466 121.869L37.1079 124.268H39.9168V119.268ZM40.7621 373.805V368.805H37.8194L36.3908 371.377L40.7621 373.805ZM78.5064 373.805L82.8776 371.377L81.449 368.805H78.5064V373.805ZM103.495 367.26V362.26H100.141L98.8689 365.363L103.495 367.26ZM110.249 367.26L112.376 362.734L111.365 362.26H110.249V367.26ZM366.674 487.768L371.33 485.944L370.603 484.09L368.801 483.243L366.674 487.768ZM369.328 488.32C369.07 488.725 368.987 488.742 369.146 488.617C369.343 488.463 369.953 488.073 370.896 488.073V498.073C374.559 498.073 376.746 495.293 377.771 493.678L369.328 488.32ZM375.768 486.517L375.676 486.474L371.423 495.524L371.515 495.568L375.768 486.517ZM368.639 490.95L368.643 491.136L378.641 490.949L378.637 490.763L368.639 490.95ZM386.259 246.537C386.259 308.897 384.343 365.798 381.193 409.09C379.617 430.744 377.737 448.925 375.646 462.652C374.6 469.519 373.512 475.199 372.403 479.606C371.262 484.142 370.199 486.901 369.376 488.242L377.9 493.471C379.564 490.759 380.918 486.745 382.101 482.046C383.316 477.217 384.459 471.197 385.532 464.158C387.678 450.069 389.581 431.602 391.166 409.816C394.339 366.226 396.259 309.075 396.259 246.537H386.259ZM370.896 5C369.397 5 368.813 4.0768 369.099 4.42769C369.328 4.70952 369.78 5.43666 370.363 6.88023C371.508 9.71783 372.715 14.1902 373.915 20.3324C376.298 32.5375 378.474 50.3751 380.312 72.6205C383.982 117.059 386.259 178.55 386.259 246.537H396.259C396.259 178.365 393.977 116.587 390.278 71.7973C388.43 49.4283 386.218 31.1615 383.729 18.4158C382.493 12.0825 381.142 6.86784 379.636 3.13727C378.893 1.29675 377.997 -0.480488 376.857 -1.88201C375.773 -3.21447 373.8 -5 370.896 -5V5ZM369.704 12.2514C370.621 8.81875 371.482 6.52733 372.205 5.19706C372.569 4.5272 372.766 4.35123 372.715 4.39784C372.638 4.46852 372.008 5 370.896 5V-5C368.736 -5 367.066 -3.98898 365.961 -2.97633C364.881 -1.98776 364.061 -0.75935 363.419 0.420454C362.131 2.78951 361.029 5.97856 360.043 9.67045L369.704 12.2514ZM141.926 131.754L367.168 15.4033L362.578 6.51862L137.337 122.87L141.926 131.754ZM134.631 127.268V127.312H144.631V127.268H134.631ZM103.495 132.268H139.631V122.268H103.495V132.268ZM89.4513 116.269C89.9406 116.269 91.1454 116.533 93.0248 118.708C94.8791 120.855 96.8754 124.301 98.8689 129.164L108.122 125.372C105.93 120.025 103.444 115.472 100.592 112.171C97.7646 108.899 94.0399 106.269 89.4513 106.269V116.269ZM83.6218 121.869C86.6121 116.96 88.7157 116.269 89.4513 116.269V106.269C83.0968 106.269 78.3992 111.221 75.0815 116.667L83.6218 121.869ZM39.9168 124.268H79.3517V114.268H39.9168V124.268ZM29.8171 116.269C30.5528 116.269 32.6563 116.96 35.6466 121.869L44.187 116.667C40.8692 111.221 36.1716 106.269 29.8171 106.269V116.269ZM5 247.264C5 209.959 8.3191 176.336 13.6172 152.172C16.2752 140.049 19.3741 130.577 22.65 124.257C24.2911 121.091 25.8514 118.964 27.2195 117.687C28.5625 116.433 29.4118 116.269 29.8171 116.269V106.269C26.1055 106.269 22.9354 108.007 20.3964 110.376C17.8824 112.723 15.6981 115.939 13.7719 119.655C9.91322 127.099 6.58709 137.543 3.84924 150.03C-1.64431 175.086 -5 209.461 -5 247.264H5ZM29.8171 378.259C29.4118 378.259 28.5625 378.094 27.2195 376.841C25.8514 375.564 24.2911 373.437 22.65 370.271C19.3741 363.951 16.2752 354.479 13.6172 342.356C8.3191 318.192 5 284.569 5 247.264H-5C-5 285.067 -1.64431 319.442 3.84924 344.498C6.58709 356.985 9.91322 367.429 13.7719 374.873C15.6981 378.589 17.8824 381.805 20.3964 384.151C22.9354 386.521 26.1055 388.259 29.8171 388.259V378.259ZM36.3908 371.377C34.8543 374.144 33.4154 375.972 32.1755 377.057C30.968 378.114 30.2022 378.259 29.8171 378.259V388.259C33.2961 388.259 36.3085 386.728 38.7603 384.583C41.1797 382.466 43.2813 379.567 45.1333 376.232L36.3908 371.377ZM78.5064 368.805H40.7621V378.805H78.5064V368.805ZM89.4513 378.259C89.0663 378.259 88.3005 378.114 87.0929 377.057C85.853 375.972 84.4142 374.144 82.8776 371.377L74.1352 376.232C75.9872 379.567 78.0887 382.466 80.5082 384.583C82.9599 386.728 85.9723 388.259 89.4513 388.259V378.259ZM98.8689 365.363C96.8754 370.227 94.8792 373.673 93.0248 375.819C91.1454 377.994 89.9406 378.259 89.4513 378.259V388.259C94.0399 388.259 97.7646 385.629 100.592 382.357C103.444 379.056 105.93 374.502 108.122 369.156L98.8689 365.363ZM110.249 362.26H103.495V372.26H110.249V362.26ZM368.801 483.243L112.376 362.734L108.122 371.785L364.547 492.293L368.801 483.243ZM370.896 488.073C371.64 488.073 372.194 488.32 372.488 488.506C372.747 488.67 372.796 488.776 372.677 488.625C372.566 488.486 372.379 488.21 372.132 487.74C371.89 487.278 371.62 486.685 371.33 485.944L362.019 489.592C362.775 491.523 363.682 493.371 364.829 494.823C365.907 496.188 367.908 498.073 370.896 498.073V488.073Z" fill="black" mask="url(#path-1-inside-1)"/>
</svg>
