<svg width="108" height="98" viewBox="0 0 108 98" fill="none" xmlns="http://www.w3.org/2000/svg">
<rect x="79.1" y="0.1" width="28.8" height="97.8" rx="2.9" stroke="black" stroke-width="0.2"/>
<rect x="95" y="17" width="13" height="62" fill="white"/>
<circle cx="28" cy="48" r="9.85" stroke="white" stroke-width="0.3"/>
<path d="M28 19L28 29" stroke="white" stroke-width="0.3"/>
<path d="M4 29L11.6071 35.4909" stroke="white" stroke-width="0.3"/>
<path d="M50.0875 28L44 35.9336" stroke="white" stroke-width="0.3"/>
<path d="M28.1808 77.0664L28.1808 67.0664" stroke="white" stroke-width="0.3"/>
<path d="M4 67.988L11.6668 61.4462" stroke="white" stroke-width="0.3"/>
<path d="M50.4491 68.9958L44.3138 61" stroke="white" stroke-width="0.3"/>
<path d="M56 48L46 48" stroke="white" stroke-width="0.3"/>
<path d="M10 48L-2.38419e-07 48" stroke="white" stroke-width="0.3"/>
<path d="M80 1L107 1" stroke="black" stroke-width="0.05"/>
<path d="M80 2L107 2" stroke="black" stroke-width="0.05"/>
<path d="M79 3H108" stroke="black" stroke-width="0.05"/>
<path d="M79 4H108" stroke="black" stroke-width="0.05"/>
<path d="M79 5H108" stroke="black" stroke-width="0.05"/>
<path d="M79 6H108" stroke="black" stroke-width="0.05"/>
<path d="M79 7H108" stroke="black" stroke-width="0.05"/>
<path d="M79 8H108" stroke="black" stroke-width="0.05"/>
<path d="M79 9H108" stroke="black" stroke-width="0.05"/>
<path d="M79 10H108" stroke="black" stroke-width="0.05"/>
<path d="M79 11H108" stroke="black" stroke-width="0.05"/>
<path d="M79 12H108" stroke="black" stroke-width="0.05"/>
<path d="M79 13H108" stroke="black" stroke-width="0.05"/>
<path d="M79 14H108" stroke="black" stroke-width="0.05"/>
<path d="M79 15H108" stroke="black" stroke-width="0.05"/>
<path d="M79 16H108" stroke="black" stroke-width="0.05"/>
<path d="M79 17H108" stroke="black" stroke-width="0.05"/>
<path d="M79 18H108" stroke="black" stroke-width="0.05"/>
<path d="M79 19H108" stroke="black" stroke-width="0.05"/>
<path d="M79 20H108" stroke="black" stroke-width="0.05"/>
<path d="M79 21H108" stroke="black" stroke-width="0.05"/>
<path d="M79 22H108" stroke="black" stroke-width="0.05"/>
<path d="M79 23H108" stroke="black" stroke-width="0.05"/>
<path d="M79 24H108" stroke="black" stroke-width="0.05"/>
<path d="M79 25H108" stroke="black" stroke-width="0.05"/>
<path d="M79 26H108" stroke="black" stroke-width="0.05"/>
<path d="M79 27H108" stroke="black" stroke-width="0.05"/>
<path d="M79 28H108" stroke="black" stroke-width="0.05"/>
<path d="M79 29H108" stroke="black" stroke-width="0.05"/>
<path d="M79 30H108" stroke="black" stroke-width="0.05"/>
<path d="M79 31H108" stroke="black" stroke-width="0.05"/>
<path d="M79 32H108" stroke="black" stroke-width="0.05"/>
<path d="M79 33H108" stroke="black" stroke-width="0.05"/>
<path d="M79 34H108" stroke="black" stroke-width="0.05"/>
<path d="M79 35H108" stroke="black" stroke-width="0.05"/>
<path d="M79 36H108" stroke="black" stroke-width="0.05"/>
<path d="M79 37H108" stroke="black" stroke-width="0.05"/>
<path d="M79 38H108" stroke="black" stroke-width="0.05"/>
<path d="M79 39H108" stroke="black" stroke-width="0.05"/>
<path d="M79 40H108" stroke="black" stroke-width="0.05"/>
<path d="M79 41H108" stroke="black" stroke-width="0.05"/>
<path d="M79 42H108" stroke="black" stroke-width="0.05"/>
<path d="M79 43H108" stroke="black" stroke-width="0.05"/>
<path d="M79 44H108" stroke="black" stroke-width="0.05"/>
<path d="M79 45H108" stroke="black" stroke-width="0.05"/>
<path d="M79 46H108" stroke="black" stroke-width="0.05"/>
<path d="M79 47H108" stroke="black" stroke-width="0.05"/>
<path d="M79 48H108" stroke="black" stroke-width="0.05"/>
<path d="M79 49H108" stroke="black" stroke-width="0.05"/>
<path d="M79 50H108" stroke="black" stroke-width="0.05"/>
<path d="M79 51H108" stroke="black" stroke-width="0.05"/>
<path d="M79 52H108" stroke="black" stroke-width="0.05"/>
<path d="M79 53H108" stroke="black" stroke-width="0.05"/>
<path d="M79 54H108" stroke="black" stroke-width="0.05"/>
<path d="M79 55H108" stroke="black" stroke-width="0.05"/>
<path d="M79 56H108" stroke="black" stroke-width="0.05"/>
<path d="M79 57H108" stroke="black" stroke-width="0.05"/>
<path d="M79 58H108" stroke="black" stroke-width="0.05"/>
<path d="M79 59H108" stroke="black" stroke-width="0.05"/>
<path d="M79 60H108" stroke="black" stroke-width="0.05"/>
<path d="M79 61H108" stroke="black" stroke-width="0.05"/>
<path d="M79 62H108" stroke="black" stroke-width="0.05"/>
<path d="M79 63H108" stroke="black" stroke-width="0.05"/>
<path d="M79 64H108" stroke="black" stroke-width="0.05"/>
<path d="M79 65H108" stroke="black" stroke-width="0.05"/>
<path d="M79 66H108" stroke="black" stroke-width="0.05"/>
<path d="M79 67H108" stroke="black" stroke-width="0.05"/>
<path d="M79 68H108" stroke="black" stroke-width="0.05"/>
<path d="M79 69H108" stroke="black" stroke-width="0.05"/>
<path d="M79 70H108" stroke="black" stroke-width="0.05"/>
<path d="M79 71H108" stroke="black" stroke-width="0.05"/>
<path d="M79 72H108" stroke="black" stroke-width="0.05"/>
<path d="M79 73H108" stroke="black" stroke-width="0.05"/>
<path d="M79 74H108" stroke="black" stroke-width="0.05"/>
<path d="M79 75H108M79 76H108" stroke="black" stroke-width="0.05"/>
<path d="M79 77H108" stroke="black" stroke-width="0.05"/>
<path d="M79 76H108" stroke="black" stroke-width="0.05"/>
<path d="M79 78H108" stroke="black" stroke-width="0.05"/>
<path d="M79 79H108" stroke="black" stroke-width="0.05"/>
<path d="M79 80H108" stroke="black" stroke-width="0.05"/>
<path d="M79 81H108" stroke="black" stroke-width="0.05"/>
<path d="M79 82H108" stroke="black" stroke-width="0.05"/>
<path d="M79 83H108" stroke="black" stroke-width="0.05"/>
<path d="M79 84H108" stroke="black" stroke-width="0.05"/>
<path d="M79 85H108" stroke="black" stroke-width="0.05"/>
<path d="M79 86H108" stroke="black" stroke-width="0.05"/>
<path d="M79 87H108" stroke="black" stroke-width="0.05"/>
<path d="M79 88H108" stroke="black" stroke-width="0.05"/>
<path d="M79 89H108" stroke="black" stroke-width="0.05"/>
<path d="M79 90H108" stroke="black" stroke-width="0.05"/>
<path d="M79 91H108" stroke="black" stroke-width="0.05"/>
<path d="M79 92H108" stroke="black" stroke-width="0.05"/>
<path d="M79 93H108" stroke="black" stroke-width="0.05"/>
<path d="M79 94H108" stroke="black" stroke-width="0.05"/>
<path d="M79 95H108" stroke="black" stroke-width="0.05"/>
<path d="M80 97H107" stroke="black" stroke-width="0.05"/>
<path d="M80 96H107" stroke="black" stroke-width="0.05"/>
</svg>
